0
SECTION
2
HEADER
9
$INSUNITS
70
4
0
ENDSEC
0
SECTION
2
TABLES
0
TABLE
2
LTYPE
0
LTYPE
72
65
70
64
2
CONTINUOUS
3
______
73
0
40
0
0
ENDTAB
0
TABLE
2
LAYER
0
ENDTAB
0
ENDSEC
0
SECTION
2
ENTITIES
0
LINE
8
front_outsideCutPath
10
0
20
78
11
0
21
54.36205
0
LINE
8
front_outsideCutPath
10
0
20
54.36205
11
3
21
54.36205
0
LINE
8
front_outsideCutPath
10
3
20
54.36205
11
3
21
26.63795
0
LINE
8
front_outsideCutPath
10
3
20
26.63795
11
0
21
26.63795
0
LINE
8
front_outsideCutPath
10
0
20
26.63795
11
0
21
3
0
LINE
8
front_outsideCutPath
10
0
20
3
11
43.41385
21
3
0
LINE
8
front_outsideCutPath
10
43.41385
20
3
11
43.41385
21
6
0
LINE
8
front_outsideCutPath
10
43.41385
20
6
11
71.13795
21
6
0
LINE
8
front_outsideCutPath
10
71.13795
20
6
11
71.13795
21
3
0
LINE
8
front_outsideCutPath
10
71.13795
20
3
11
98.86205
21
3
0
LINE
8
front_outsideCutPath
10
98.86205
20
3
11
98.86205
21
6
0
LINE
8
front_outsideCutPath
10
98.86205
20
6
11
126.58615
21
6
0
LINE
8
front_outsideCutPath
10
126.58615
20
6
11
126.58615
21
3
0
LINE
8
front_outsideCutPath
10
126.58615
20
3
11
154.31025
21
3
0
LINE
8
front_outsideCutPath
10
154.31025
20
3
11
170
21
3
0
LINE
8
front_outsideCutPath
10
170
20
3
11
170
21
26.63795
0
LINE
8
front_outsideCutPath
10
170
20
26.63795
11
167
21
26.63795
0
LINE
8
front_outsideCutPath
10
167
20
26.63795
11
167
21
54.36205
0
LINE
8
front_outsideCutPath
10
167
20
54.36205
11
170
21
54.36205
0
LINE
8
front_outsideCutPath
10
170
20
54.36205
11
170
21
78
0
LINE
8
front_outsideCutPath
10
170
20
78
11
126.58615
21
78
0
LINE
8
front_outsideCutPath
10
126.58615
20
78
11
126.58615
21
75
0
LINE
8
front_outsideCutPath
10
126.58615
20
75
11
98.86205
21
75
0
LINE
8
front_outsideCutPath
10
98.86205
20
75
11
98.86205
21
78
0
LINE
8
front_outsideCutPath
10
98.86205
20
78
11
71.13795
21
78
0
LINE
8
front_outsideCutPath
10
71.13795
20
78
11
71.13795
21
75
0
LINE
8
front_outsideCutPath
10
71.13795
20
75
11
43.41385
21
75
0
LINE
8
front_outsideCutPath
10
43.41385
20
75
11
43.41385
21
78
0
LINE
8
front_outsideCutPath
10
43.41385
20
78
11
15.68975
21
78
0
LINE
8
front_outsideCutPath
10
15.68975
20
78
11
0
21
78
0
LINE
8
left_outsideCutPath
10
176
20
78
11
176
21
54.36205
0
LINE
8
left_outsideCutPath
10
176
20
54.36205
11
173
21
54.36205
0
LINE
8
left_outsideCutPath
10
173
20
54.36205
11
173
21
26.63795
0
LINE
8
left_outsideCutPath
10
173
20
26.63795
11
176
21
26.63795
0
LINE
8
left_outsideCutPath
10
176
20
26.63795
11
176
21
3
0
LINE
8
left_outsideCutPath
10
176
20
3
11
208.68975
21
3
0
LINE
8
left_outsideCutPath
10
208.68975
20
3
11
208.68975
21
6
0
LINE
8
left_outsideCutPath
10
208.68975
20
6
11
236.41385
21
6
0
LINE
8
left_outsideCutPath
10
236.41385
20
6
11
236.41385
21
3
0
LINE
8
left_outsideCutPath
10
236.41385
20
3
11
264.13795
21
3
0
LINE
8
left_outsideCutPath
10
264.13795
20
3
11
264.13795
21
6
0
LINE
8
left_outsideCutPath
10
264.13795
20
6
11
291.86205
21
6
0
LINE
8
left_outsideCutPath
10
291.86205
20
6
11
291.86205
21
3
0
LINE
8
left_outsideCutPath
10
291.86205
20
3
11
319.58615
21
3
0
LINE
8
left_outsideCutPath
10
319.58615
20
3
11
319.58615
21
6
0
LINE
8
left_outsideCutPath
10
319.58615
20
6
11
347.31025
21
6
0
LINE
8
left_outsideCutPath
10
347.31025
20
6
11
347.31025
21
3
0
LINE
8
left_outsideCutPath
10
347.31025
20
3
11
375.03435
21
3
0
LINE
8
left_outsideCutPath
10
375.03435
20
3
11
380
21
3
0
LINE
8
left_outsideCutPath
10
380
20
3
11
380
21
26.63795
0
LINE
8
left_outsideCutPath
10
380
20
26.63795
11
383
21
26.63795
0
LINE
8
left_outsideCutPath
10
383
20
26.63795
11
383
21
54.36205
0
LINE
8
left_outsideCutPath
10
383
20
54.36205
11
380
21
54.36205
0
LINE
8
left_outsideCutPath
10
380
20
54.36205
11
380
21
78
0
LINE
8
left_outsideCutPath
10
380
20
78
11
347.31025
21
78
0
LINE
8
left_outsideCutPath
10
347.31025
20
78
11
347.31025
21
75
0
LINE
8
left_outsideCutPath
10
347.31025
20
75
11
319.58615
21
75
0
LINE
8
left_outsideCutPath
10
319.58615
20
75
11
319.58615
21
78
0
LINE
8
left_outsideCutPath
10
319.58615
20
78
11
291.86205
21
78
0
LINE
8
left_outsideCutPath
10
291.86205
20
78
11
291.86205
21
75
0
LINE
8
left_outsideCutPath
10
291.86205
20
75
11
264.13795
21
75
0
LINE
8
left_outsideCutPath
10
264.13795
20
75
11
264.13795
21
78
0
LINE
8
left_outsideCutPath
10
264.13795
20
78
11
236.41385
21
78
0
LINE
8
left_outsideCutPath
10
236.41385
20
78
11
236.41385
21
75
0
LINE
8
left_outsideCutPath
10
236.41385
20
75
11
208.68975
21
75
0
LINE
8
left_outsideCutPath
10
208.68975
20
75
11
208.68975
21
78
0
LINE
8
left_outsideCutPath
10
208.68975
20
78
11
180.96565
21
78
0
LINE
8
left_outsideCutPath
10
180.96565
20
78
11
176
21
78
0
LINE
8
top_outsideCutPath
10
389
20
210
11
389
21
177.31025
0
LINE
8
top_outsideCutPath
10
389
20
177.31025
11
386
21
177.31025
0
LINE
8
top_outsideCutPath
10
386
20
177.31025
11
386
21
149.58615
0
LINE
8
top_outsideCutPath
10
386
20
149.58615
11
389
21
149.58615
0
LINE
8
top_outsideCutPath
10
389
20
149.58615
11
389
21
121.86205
0
LINE
8
top_outsideCutPath
10
389
20
121.86205
11
386
21
121.86205
0
LINE
8
top_outsideCutPath
10
386
20
121.86205
11
386
21
94.13795
0
LINE
8
top_outsideCutPath
10
386
20
94.13795
11
389
21
94.13795
0
LINE
8
top_outsideCutPath
10
389
20
94.13795
11
389
21
66.41385
0
LINE
8
top_outsideCutPath
10
389
20
66.41385
11
386
21
66.41385
0
LINE
8
top_outsideCutPath
10
386
20
66.41385
11
386
21
38.68975
0
LINE
8
top_outsideCutPath
10
386
20
38.68975
11
389
21
38.68975
0
LINE
8
top_outsideCutPath
10
389
20
38.68975
11
389
21
10.96565
0
LINE
8
top_outsideCutPath
10
389
20
10.96565
11
389
21
6
0
LINE
8
top_outsideCutPath
10
389
20
6
11
429.41385
21
6
0
LINE
8
top_outsideCutPath
10
429.41385
20
6
11
429.41385
21
3
0
LINE
8
top_outsideCutPath
10
429.41385
20
3
11
457.13795
21
3
0
LINE
8
top_outsideCutPath
10
457.13795
20
3
11
457.13795
21
6
0
LINE
8
top_outsideCutPath
10
457.13795
20
6
11
484.86205
21
6
0
LINE
8
top_outsideCutPath
10
484.86205
20
6
11
484.86205
21
3
0
LINE
8
top_outsideCutPath
10
484.86205
20
3
11
512.58615
21
3
0
LINE
8
top_outsideCutPath
10
512.58615
20
3
11
512.58615
21
6
0
LINE
8
top_outsideCutPath
10
512.58615
20
6
11
540.31025
21
6
0
LINE
8
top_outsideCutPath
10
540.31025
20
6
11
553
21
6
0
LINE
8
top_outsideCutPath
10
553
20
6
11
553
21
38.68975
0
LINE
8
top_outsideCutPath
10
553
20
38.68975
11
556
21
38.68975
0
LINE
8
top_outsideCutPath
10
556
20
38.68975
11
556
21
66.41385
0
LINE
8
top_outsideCutPath
10
556
20
66.41385
11
553
21
66.41385
0
LINE
8
top_outsideCutPath
10
553
20
66.41385
11
553
21
94.13795
0
LINE
8
top_outsideCutPath
10
553
20
94.13795
11
556
21
94.13795
0
LINE
8
top_outsideCutPath
10
556
20
94.13795
11
556
21
121.86205
0
LINE
8
top_outsideCutPath
10
556
20
121.86205
11
553
21
121.86205
0
LINE
8
top_outsideCutPath
10
553
20
121.86205
11
553
21
149.58615
0
LINE
8
top_outsideCutPath
10
553
20
149.58615
11
556
21
149.58615
0
LINE
8
top_outsideCutPath
10
556
20
149.58615
11
556
21
177.31025
0
LINE
8
top_outsideCutPath
10
556
20
177.31025
11
553
21
177.31025
0
LINE
8
top_outsideCutPath
10
553
20
177.31025
11
553
21
205.03435
0
LINE
8
top_outsideCutPath
10
553
20
205.03435
11
553
21
210
0
LINE
8
top_outsideCutPath
10
553
20
210
11
512.58615
21
210
0
LINE
8
top_outsideCutPath
10
512.58615
20
210
11
512.58615
21
213
0
LINE
8
top_outsideCutPath
10
512.58615
20
213
11
484.86205
21
213
0
LINE
8
top_outsideCutPath
10
484.86205
20
213
11
484.86205
21
210
0
LINE
8
top_outsideCutPath
10
484.86205
20
210
11
457.13795
21
210
0
LINE
8
top_outsideCutPath
10
457.13795
20
210
11
457.13795
21
213
0
LINE
8
top_outsideCutPath
10
457.13795
20
213
11
429.41385
21
213
0
LINE
8
top_outsideCutPath
10
429.41385
20
213
11
429.41385
21
210
0
LINE
8
top_outsideCutPath
10
429.41385
20
210
11
401.68975
21
210
0
LINE
8
top_outsideCutPath
10
401.68975
20
210
11
389
21
210
0
LINE
8
back_outsideCutPath
10
0
20
156
11
0
21
132.36205
0
LINE
8
back_outsideCutPath
10
0
20
132.36205
11
3
21
132.36205
0
LINE
8
back_outsideCutPath
10
3
20
132.36205
11
3
21
104.63795
0
LINE
8
back_outsideCutPath
10
3
20
104.63795
11
0
21
104.63795
0
LINE
8
back_outsideCutPath
10
0
20
104.63795
11
0
21
81
0
LINE
8
back_outsideCutPath
10
0
20
81
11
43.41385
21
81
0
LINE
8
back_outsideCutPath
10
43.41385
20
81
11
43.41385
21
84
0
LINE
8
back_outsideCutPath
10
43.41385
20
84
11
71.13795
21
84
0
LINE
8
back_outsideCutPath
10
71.13795
20
84
11
71.13795
21
81
0
LINE
8
back_outsideCutPath
10
71.13795
20
81
11
98.86205
21
81
0
LINE
8
back_outsideCutPath
10
98.86205
20
81
11
98.86205
21
84
0
LINE
8
back_outsideCutPath
10
98.86205
20
84
11
126.58615
21
84
0
LINE
8
back_outsideCutPath
10
126.58615
20
84
11
126.58615
21
81
0
LINE
8
back_outsideCutPath
10
126.58615
20
81
11
154.31025
21
81
0
LINE
8
back_outsideCutPath
10
154.31025
20
81
11
170
21
81
0
LINE
8
back_outsideCutPath
10
170
20
81
11
170
21
104.63795
0
LINE
8
back_outsideCutPath
10
170
20
104.63795
11
167
21
104.63795
0
LINE
8
back_outsideCutPath
10
167
20
104.63795
11
167
21
132.36205
0
LINE
8
back_outsideCutPath
10
167
20
132.36205
11
170
21
132.36205
0
LINE
8
back_outsideCutPath
10
170
20
132.36205
11
170
21
156
0
LINE
8
back_outsideCutPath
10
170
20
156
11
126.58615
21
156
0
LINE
8
back_outsideCutPath
10
126.58615
20
156
11
126.58615
21
153
0
LINE
8
back_outsideCutPath
10
126.58615
20
153
11
98.86205
21
153
0
LINE
8
back_outsideCutPath
10
98.86205
20
153
11
98.86205
21
156
0
LINE
8
back_outsideCutPath
10
98.86205
20
156
11
71.13795
21
156
0
LINE
8
back_outsideCutPath
10
71.13795
20
156
11
71.13795
21
153
0
LINE
8
back_outsideCutPath
10
71.13795
20
153
11
43.41385
21
153
0
LINE
8
back_outsideCutPath
10
43.41385
20
153
11
43.41385
21
156
0
LINE
8
back_outsideCutPath
10
43.41385
20
156
11
15.68975
21
156
0
LINE
8
back_outsideCutPath
10
15.68975
20
156
11
0
21
156
0
LINE
8
right_outsideCutPath
10
176
20
156
11
176
21
132.36205
0
LINE
8
right_outsideCutPath
10
176
20
132.36205
11
173
21
132.36205
0
LINE
8
right_outsideCutPath
10
173
20
132.36205
11
173
21
104.63795
0
LINE
8
right_outsideCutPath
10
173
20
104.63795
11
176
21
104.63795
0
LINE
8
right_outsideCutPath
10
176
20
104.63795
11
176
21
81
0
LINE
8
right_outsideCutPath
10
176
20
81
11
208.68975
21
81
0
LINE
8
right_outsideCutPath
10
208.68975
20
81
11
208.68975
21
84
0
LINE
8
right_outsideCutPath
10
208.68975
20
84
11
236.41385
21
84
0
LINE
8
right_outsideCutPath
10
236.41385
20
84
11
236.41385
21
81
0
LINE
8
right_outsideCutPath
10
236.41385
20
81
11
264.13795
21
81
0
LINE
8
right_outsideCutPath
10
264.13795
20
81
11
264.13795
21
84
0
LINE
8
right_outsideCutPath
10
264.13795
20
84
11
291.86205
21
84
0
LINE
8
right_outsideCutPath
10
291.86205
20
84
11
291.86205
21
81
0
LINE
8
right_outsideCutPath
10
291.86205
20
81
11
319.58615
21
81
0
LINE
8
right_outsideCutPath
10
319.58615
20
81
11
319.58615
21
84
0
LINE
8
right_outsideCutPath
10
319.58615
20
84
11
347.31025
21
84
0
LINE
8
right_outsideCutPath
10
347.31025
20
84
11
347.31025
21
81
0
LINE
8
right_outsideCutPath
10
347.31025
20
81
11
375.03435
21
81
0
LINE
8
right_outsideCutPath
10
375.03435
20
81
11
380
21
81
0
LINE
8
right_outsideCutPath
10
380
20
81
11
380
21
104.63795
0
LINE
8
right_outsideCutPath
10
380
20
104.63795
11
383
21
104.63795
0
LINE
8
right_outsideCutPath
10
383
20
104.63795
11
383
21
132.36205
0
LINE
8
right_outsideCutPath
10
383
20
132.36205
11
380
21
132.36205
0
LINE
8
right_outsideCutPath
10
380
20
132.36205
11
380
21
156
0
LINE
8
right_outsideCutPath
10
380
20
156
11
347.31025
21
156
0
LINE
8
right_outsideCutPath
10
347.31025
20
156
11
347.31025
21
153
0
LINE
8
right_outsideCutPath
10
347.31025
20
153
11
319.58615
21
153
0
LINE
8
right_outsideCutPath
10
319.58615
20
153
11
319.58615
21
156
0
LINE
8
right_outsideCutPath
10
319.58615
20
156
11
291.86205
21
156
0
LINE
8
right_outsideCutPath
10
291.86205
20
156
11
291.86205
21
153
0
LINE
8
right_outsideCutPath
10
291.86205
20
153
11
264.13795
21
153
0
LINE
8
right_outsideCutPath
10
264.13795
20
153
11
264.13795
21
156
0
LINE
8
right_outsideCutPath
10
264.13795
20
156
11
236.41385
21
156
0
LINE
8
right_outsideCutPath
10
236.41385
20
156
11
236.41385
21
153
0
LINE
8
right_outsideCutPath
10
236.41385
20
153
11
208.68975
21
153
0
LINE
8
right_outsideCutPath
10
208.68975
20
153
11
208.68975
21
156
0
LINE
8
right_outsideCutPath
10
208.68975
20
156
11
180.96565
21
156
0
LINE
8
right_outsideCutPath
10
180.96565
20
156
11
176
21
156
0
LINE
8
bottom_outsideCutPath
10
389
20
423
11
389
21
390.31025
0
LINE
8
bottom_outsideCutPath
10
389
20
390.31025
11
386
21
390.31025
0
LINE
8
bottom_outsideCutPath
10
386
20
390.31025
11
386
21
362.58615
0
LINE
8
bottom_outsideCutPath
10
386
20
362.58615
11
389
21
362.58615
0
LINE
8
bottom_outsideCutPath
10
389
20
362.58615
11
389
21
334.86205
0
LINE
8
bottom_outsideCutPath
10
389
20
334.86205
11
386
21
334.86205
0
LINE
8
bottom_outsideCutPath
10
386
20
334.86205
11
386
21
307.13795
0
LINE
8
bottom_outsideCutPath
10
386
20
307.13795
11
389
21
307.13795
0
LINE
8
bottom_outsideCutPath
10
389
20
307.13795
11
389
21
279.41385
0
LINE
8
bottom_outsideCutPath
10
389
20
279.41385
11
386
21
279.41385
0
LINE
8
bottom_outsideCutPath
10
386
20
279.41385
11
386
21
251.68975
0
LINE
8
bottom_outsideCutPath
10
386
20
251.68975
11
389
21
251.68975
0
LINE
8
bottom_outsideCutPath
10
389
20
251.68975
11
389
21
223.96565
0
LINE
8
bottom_outsideCutPath
10
389
20
223.96565
11
389
21
219
0
LINE
8
bottom_outsideCutPath
10
389
20
219
11
429.41385
21
219
0
LINE
8
bottom_outsideCutPath
10
429.41385
20
219
11
429.41385
21
216
0
LINE
8
bottom_outsideCutPath
10
429.41385
20
216
11
457.13795
21
216
0
LINE
8
bottom_outsideCutPath
10
457.13795
20
216
11
457.13795
21
219
0
LINE
8
bottom_outsideCutPath
10
457.13795
20
219
11
484.86205
21
219
0
LINE
8
bottom_outsideCutPath
10
484.86205
20
219
11
484.86205
21
216
0
LINE
8
bottom_outsideCutPath
10
484.86205
20
216
11
512.58615
21
216
0
LINE
8
bottom_outsideCutPath
10
512.58615
20
216
11
512.58615
21
219
0
LINE
8
bottom_outsideCutPath
10
512.58615
20
219
11
540.31025
21
219
0
LINE
8
bottom_outsideCutPath
10
540.31025
20
219
11
553
21
219
0
LINE
8
bottom_outsideCutPath
10
553
20
219
11
553
21
251.68975
0
LINE
8
bottom_outsideCutPath
10
553
20
251.68975
11
556
21
251.68975
0
LINE
8
bottom_outsideCutPath
10
556
20
251.68975
11
556
21
279.41385
0
LINE
8
bottom_outsideCutPath
10
556
20
279.41385
11
553
21
279.41385
0
LINE
8
bottom_outsideCutPath
10
553
20
279.41385
11
553
21
307.13795
0
LINE
8
bottom_outsideCutPath
10
553
20
307.13795
11
556
21
307.13795
0
LINE
8
bottom_outsideCutPath
10
556
20
307.13795
11
556
21
334.86205
0
LINE
8
bottom_outsideCutPath
10
556
20
334.86205
11
553
21
334.86205
0
LINE
8
bottom_outsideCutPath
10
553
20
334.86205
11
553
21
362.58615
0
LINE
8
bottom_outsideCutPath
10
553
20
362.58615
11
556
21
362.58615
0
LINE
8
bottom_outsideCutPath
10
556
20
362.58615
11
556
21
390.31025
0
LINE
8
bottom_outsideCutPath
10
556
20
390.31025
11
553
21
390.31025
0
LINE
8
bottom_outsideCutPath
10
553
20
390.31025
11
553
21
418.03435
0
LINE
8
bottom_outsideCutPath
10
553
20
418.03435
11
553
21
423
0
LINE
8
bottom_outsideCutPath
10
553
20
423
11
512.58615
21
423
0
LINE
8
bottom_outsideCutPath
10
512.58615
20
423
11
512.58615
21
426
0
LINE
8
bottom_outsideCutPath
10
512.58615
20
426
11
484.86205
21
426
0
LINE
8
bottom_outsideCutPath
10
484.86205
20
426
11
484.86205
21
423
0
LINE
8
bottom_outsideCutPath
10
484.86205
20
423
11
457.13795
21
423
0
LINE
8
bottom_outsideCutPath
10
457.13795
20
423
11
457.13795
21
426
0
LINE
8
bottom_outsideCutPath
10
457.13795
20
426
11
429.41385
21
426
0
LINE
8
bottom_outsideCutPath
10
429.41385
20
426
11
429.41385
21
423
0
LINE
8
bottom_outsideCutPath
10
429.41385
20
423
11
401.68975
21
423
0
LINE
8
bottom_outsideCutPath
10
401.68975
20
423
11
389
21
423
0
ENDSEC
0
EOF