0
SECTION
2
HEADER
9
$INSUNITS
70
4
9
$ACADVER
1
AC1014
9
$HANDSEED
5
FFFF
0
ENDSEC
0
SECTION
2
TABLES
0
TABLE
2
VPORT
5
8
100
AcDbSymbolTable
0
ENDTAB
0
TABLE
2
LTYPE
5
5
100
AcDbSymbolTable
0
LTYPE
5
14
100
AcDbSymbolTableRecord
100
AcDbLinetypeTableRecord
2
BYBLOCK
70
0
0
LTYPE
5
15
100
AcDbSymbolTableRecord
100
AcDbLinetypeTableRecord
2
BYLAYER
70
0
0
ENDTAB
0
TABLE
2
LAYER
5
2
100
AcDbSymbolTable
70
2
0
LAYER
5
50
100
AcDbSymbolTableRecord
100
AcDbLayerTableRecord
2
0
70
0
6
CONTINUOUS
0
ENDTAB
0
TABLE
2
STYLE
5
3
100
AcDbSymbolTable
70
1
0
STYLE
5
11
100
AcDbSymbolTableRecord
100
AcDbTextStyleTableRecord
2
STANDARD
70
0
0
ENDTAB
0
TABLE
2
VIEW
5
6
100
AcDbSymbolTable
70
0
0
ENDTAB
0
TABLE
2
UCS
5
7
100
AcDbSymbolTable
70
0
0
ENDTAB
0
TABLE
2
APPID
5
9
100
AcDbSymbolTable
70
2
0
APPID
5
12
100
AcDbSymbolTableRecord
100
AcDbRegAppTableRecord
2
ACAD
70
0
0
ENDTAB
0
TABLE
2
DIMSTYLE
5
A
100
AcDbSymbolTable
70
1
0
ENDTAB
0
TABLE
2
BLOCK_RECORD
5
1
100
AcDbSymbolTable
70
1
0
BLOCK_RECORD
5
1F
100
AcDbSymbolTableRecord
100
AcDbBlockTableRecord
2
*MODEL_SPACE
0
BLOCK_RECORD
5
1B
100
AcDbSymbolTableRecord
100
AcDbBlockTableRecord
2
*PAPER_SPACE
0
ENDTAB
0
ENDSEC
0
SECTION
2
BLOCKS
0
BLOCK
5
20
100
AcDbEntity
100
AcDbBlockBegin
2
*MODEL_SPACE
0
ENDBLK
5
21
100
AcDbEntity
100
AcDbBlockEnd
0
BLOCK
5
1C
100
AcDbEntity
100
AcDbBlockBegin
2
*PAPER_SPACE
0
ENDBLK
5
1D
100
AcDbEntity
100
AcDbBlockEnd
0
ENDSEC
0
SECTION
2
ENTITIES
0
LWPOLYLINE
5
100
100
AcDbEntity
8
0
100
AcDbPolyline
90
4
70
1
43
0.0
10
-539.99772679423518
20
-340.12586402657962
10
-539.99772679423518
20
-400.12586402657962
10
-551.99772679423518
20
-400.12586402657962
10
-551.99772679423518
20
-340.12586402657962
0
LWPOLYLINE
5
101
100
AcDbEntity
8
0
100
AcDbPolyline
90
4
70
1
43
0.0
10
-411.49771856879312
20
-403.52585904959057
10
-518.49771856879147
20
-403.52585904959074
10
-518.49771856879147
20
-236.72585904959348
10
-411.49771856879329
20
-236.72585904959334
0
LWPOLYLINE
5
102
100
AcDbEntity
8
0
100
AcDbPolyline
90
44
70
1
43
0.0
10
-390.03237915039057
20
-216.99443435668945
10
-430.44622915039065
20
-216.99443435668945
10
-430.44622915039065
20
-213.99443435668945
10
-458.17032915039056
20
-213.99443435668945
10
-458.17032915039056
20
-216.99443435668945
10
-485.89442915039058
20
-216.99443435668945
10
-485.89442915039058
20
-213.99443435668945
10
-513.6185291503906
20
-213.99443435668945
10
-513.6185291503906
20
-216.99443435668945
10
-554.03237915039062
20
-216.99443435668945
10
-554.03237915039062
20
-249.68418435668946
10
-557.03237915039062
20
-249.68418435668946
10
-557.03237915039062
20
-277.40828435668948
10
-554.03237915039062
20
-277.40828435668948
10
-554.03237915039062
20
-305.13238435668944
10
-557.03237915039062
20
-305.13238435668944
10
-557.03237915039062
20
-332.85648435668946
10
-554.03237915039062
20
-332.85648435668946
10
-554.03237915039062
20
-360.58058435668949
10
-557.03237915039062
20
-360.58058435668949
10
-557.03237915039062
20
-388.30468435668945
10
-554.03237915039062
20
-388.30468435668945
10
-554.03237915039062
20
-420.99443435668945
10
-513.6185291503906
20
-420.99443435668945
10
-513.6185291503906
20
-423.99443435668945
10
-485.89442915039058
20
-423.99443435668945
10
-485.89442915039058
20
-420.99443435668945
10
-458.17032915039056
20
-420.99443435668945
10
-458.17032915039056
20
-423.99443435668945
10
-430.44622915039065
20
-423.99443435668945
10
-430.44622915039065
20
-420.99443435668945
10
-390.03237915039057
20
-420.99443435668945
10
-390.03237915039057
20
-388.30468435668945
10
-387.03237915039062
20
-388.30468435668945
10
-387.03237915039062
20
-360.58058435668949
10
-390.03237915039057
20
-360.58058435668949
10
-390.03237915039057
20
-332.85648435668946
10
-387.03237915039062
20
-332.85648435668946
10
-387.03237915039062
20
-305.13238435668944
10
-390.03237915039057
20
-305.13238435668944
10
-390.03237915039057
20
-277.40828435668948
10
-387.03237915039062
20
-277.40828435668948
10
-387.03237915039062
20
-249.68418435668946
10
-390.03237915039057
20
-249.68418435668946
0
CIRCLE
5
103
100
AcDbEntity
8
0
100
AcDbCircle
10
402.50000145680553
20
-398.50000663764297
30
1.4473489191621026e-06
40
2.0000000000000284
210
-1.7797583119462652e-16
220
-1.5297764593223559e-24
230
-1
0
CIRCLE
5
104
100
AcDbEntity
8
0
100
AcDbCircle
10
402.50000145680599
20
-241.50000663764328
30
1.4473500275098994e-06
40
2.0000000000000284
210
-1.7797583119462652e-16
220
-1.5297764593223559e-24
230
-1
0
CIRCLE
5
105
100
AcDbEntity
8
0
100
AcDbCircle
10
527.50000145680531
20
-398.50000663764342
30
1.4473489288139899e-06
40
2.0000000000000284
210
-1.7797583119462652e-16
220
-1.5297764593223559e-24
230
-1
0
CIRCLE
5
106
100
AcDbEntity
8
0
100
AcDbCircle
10
527.50000145680576
20
-241.50000663764371
30
1.4473500371617865e-06
40
1.9999999999999574
210
-1.7797583119462652e-16
220
-1.5297764593223559e-24
230
-1
0
ENDSEC
0
SECTION
2
OBJECTS
0
DICTIONARY
5
C
100
AcDbDictionary
3
ACAD_GROUP
350
D
3
ACAD_MLINESTYLE
350
17
0
DICTIONARY
5
D
100
AcDbDictionary
0
DICTIONARY
5
1A
330
C
100
AcDbDictionary
0
DICTIONARY
5
17
100
AcDbDictionary
0
ENDSEC
0
EOF
