0
SECTION
2
HEADER
9
$INSUNITS
70
4
9
$ACADVER
1
AC1014
9
$HANDSEED
5
FFFF
0
ENDSEC
0
SECTION
2
TABLES
0
TABLE
2
VPORT
5
8
100
AcDbSymbolTable
0
ENDTAB
0
TABLE
2
LTYPE
5
5
100
AcDbSymbolTable
0
LTYPE
5
14
100
AcDbSymbolTableRecord
100
AcDbLinetypeTableRecord
2
BYBLOCK
70
0
0
LTYPE
5
15
100
AcDbSymbolTableRecord
100
AcDbLinetypeTableRecord
2
BYLAYER
70
0
0
ENDTAB
0
TABLE
2
LAYER
5
2
100
AcDbSymbolTable
70
2
0
LAYER
5
50
100
AcDbSymbolTableRecord
100
AcDbLayerTableRecord
2
0
70
0
6
CONTINUOUS
0
ENDTAB
0
TABLE
2
STYLE
5
3
100
AcDbSymbolTable
70
1
0
STYLE
5
11
100
AcDbSymbolTableRecord
100
AcDbTextStyleTableRecord
2
STANDARD
70
0
0
ENDTAB
0
TABLE
2
VIEW
5
6
100
AcDbSymbolTable
70
0
0
ENDTAB
0
TABLE
2
UCS
5
7
100
AcDbSymbolTable
70
0
0
ENDTAB
0
TABLE
2
APPID
5
9
100
AcDbSymbolTable
70
2
0
APPID
5
12
100
AcDbSymbolTableRecord
100
AcDbRegAppTableRecord
2
ACAD
70
0
0
ENDTAB
0
TABLE
2
DIMSTYLE
5
A
100
AcDbSymbolTable
70
1
0
ENDTAB
0
TABLE
2
BLOCK_RECORD
5
1
100
AcDbSymbolTable
70
1
0
BLOCK_RECORD
5
1F
100
AcDbSymbolTableRecord
100
AcDbBlockTableRecord
2
*MODEL_SPACE
0
BLOCK_RECORD
5
1B
100
AcDbSymbolTableRecord
100
AcDbBlockTableRecord
2
*PAPER_SPACE
0
ENDTAB
0
ENDSEC
0
SECTION
2
BLOCKS
0
BLOCK
5
20
100
AcDbEntity
100
AcDbBlockBegin
2
*MODEL_SPACE
0
ENDBLK
5
21
100
AcDbEntity
100
AcDbBlockEnd
0
BLOCK
5
1C
100
AcDbEntity
100
AcDbBlockBegin
2
*PAPER_SPACE
0
ENDBLK
5
1D
100
AcDbEntity
100
AcDbBlockEnd
0
ENDSEC
0
SECTION
2
ENTITIES
0
LWPOLYLINE
5
100
100
AcDbEntity
8
0
100
AcDbPolyline
90
36
70
1
43
0.0
10
388.30467771904478
20
-3.2243189643324044
10
420.99442771904484
20
-3.2243189643324044
10
420.99442771904484
20
20.413631035667592
10
423.99442771904489
20
20.413631035667592
10
423.99442771904489
20
48.137731035667585
10
420.99442771904484
20
48.137731035667585
10
420.99442771904484
20
71.775681035667589
10
388.30467771904478
20
71.775681035667589
10
388.30467771904478
20
68.775681035667589
10
360.58057771904487
20
68.775681035667589
10
360.58057771904487
20
71.775681035667589
10
332.85647771904485
20
71.775681035667589
10
332.85647771904485
20
68.775681035667589
10
305.13237771904483
20
68.775681035667589
10
305.13237771904483
20
71.775681035667589
10
277.40827771904486
20
71.775681035667589
10
277.40827771904486
20
68.775681035667589
10
249.68417771904484
20
68.775681035667589
10
249.68417771904484
20
71.775681035667589
10
216.99442771904486
20
71.775681035667589
10
216.99442771904486
20
48.137731035667585
10
213.99442771904484
20
48.137731035667585
10
213.99442771904484
20
20.413631035667592
10
216.99442771904486
20
20.413631035667592
10
216.99442771904486
20
-3.2243189643324044
10
249.68417771904484
20
-3.2243189643324044
10
249.68417771904484
20
-0.22431896433239729
10
277.40827771904486
20
-0.22431896433239729
10
277.40827771904486
20
-3.2243189643324044
10
305.13237771904483
20
-3.2243189643324044
10
305.13237771904483
20
-0.22431896433239729
10
332.85647771904485
20
-0.22431896433239729
10
332.85647771904485
20
-3.2243189643324044
10
360.58057771904487
20
-3.2243189643324044
10
360.58057771904487
20
-0.22431896433239729
10
388.30467771904478
20
-0.22431896433239729
0
CIRCLE
5
101
100
AcDbEntity
8
0
100
AcDbCircle
10
342.49999234452844
20
61.799998618662357
30
0
40
1.4999999999999782
210
0
220
0
230
1
0
CIRCLE
5
102
100
AcDbEntity
8
0
100
AcDbCircle
10
400.49999234452849
20
61.799998618662357
30
0
40
1.4999999999999782
210
0
220
0
230
1
0
CIRCLE
5
103
100
AcDbEntity
8
0
100
AcDbCircle
10
342.49999234452844
20
12.799998618662345
30
0
40
1.4999999999999782
210
0
220
0
230
1
0
CIRCLE
5
104
100
AcDbEntity
8
0
100
AcDbCircle
10
400.49999234452849
20
12.799998618662345
30
0
40
1.4999999999999782
210
0
220
0
230
1
0
ENDSEC
0
SECTION
2
OBJECTS
0
DICTIONARY
5
C
100
AcDbDictionary
3
ACAD_GROUP
350
D
3
ACAD_MLINESTYLE
350
17
0
DICTIONARY
5
D
100
AcDbDictionary
0
DICTIONARY
5
1A
330
C
100
AcDbDictionary
0
DICTIONARY
5
17
100
AcDbDictionary
0
ENDSEC
0
EOF
