0
SECTION
2
HEADER
9
$INSUNITS
70
4
9
$ACADVER
1
AC1014
9
$HANDSEED
5
FFFF
0
ENDSEC
0
SECTION
2
TABLES
0
TABLE
2
VPORT
5
8
100
AcDbSymbolTable
0
ENDTAB
0
TABLE
2
LTYPE
5
5
100
AcDbSymbolTable
0
LTYPE
5
14
100
AcDbSymbolTableRecord
100
AcDbLinetypeTableRecord
2
BYBLOCK
70
0
0
LTYPE
5
15
100
AcDbSymbolTableRecord
100
AcDbLinetypeTableRecord
2
BYLAYER
70
0
0
ENDTAB
0
TABLE
2
LAYER
5
2
100
AcDbSymbolTable
70
2
0
LAYER
5
50
100
AcDbSymbolTableRecord
100
AcDbLayerTableRecord
2
0
70
0
6
CONTINUOUS
0
ENDTAB
0
TABLE
2
STYLE
5
3
100
AcDbSymbolTable
70
1
0
STYLE
5
11
100
AcDbSymbolTableRecord
100
AcDbTextStyleTableRecord
2
STANDARD
70
0
0
ENDTAB
0
TABLE
2
VIEW
5
6
100
AcDbSymbolTable
70
0
0
ENDTAB
0
TABLE
2
UCS
5
7
100
AcDbSymbolTable
70
0
0
ENDTAB
0
TABLE
2
APPID
5
9
100
AcDbSymbolTable
70
2
0
APPID
5
12
100
AcDbSymbolTableRecord
100
AcDbRegAppTableRecord
2
ACAD
70
0
0
ENDTAB
0
TABLE
2
DIMSTYLE
5
A
100
AcDbSymbolTable
70
1
0
ENDTAB
0
TABLE
2
BLOCK_RECORD
5
1
100
AcDbSymbolTable
70
1
0
BLOCK_RECORD
5
1F
100
AcDbSymbolTableRecord
100
AcDbBlockTableRecord
2
*MODEL_SPACE
0
BLOCK_RECORD
5
1B
100
AcDbSymbolTableRecord
100
AcDbBlockTableRecord
2
*PAPER_SPACE
0
ENDTAB
0
ENDSEC
0
SECTION
2
BLOCKS
0
BLOCK
5
20
100
AcDbEntity
100
AcDbBlockBegin
2
*MODEL_SPACE
0
ENDBLK
5
21
100
AcDbEntity
100
AcDbBlockEnd
0
BLOCK
5
1C
100
AcDbEntity
100
AcDbBlockBegin
2
*PAPER_SPACE
0
ENDBLK
5
1D
100
AcDbEntity
100
AcDbBlockEnd
0
ENDSEC
0
SECTION
2
ENTITIES
0
LINE
5
100
100
AcDbEntity
8
0
100
AcDbLine
10
388.30468817138666
20
-3.224321365356424
30
-1.3801980804917235e-05
11
420.99443817138672
21
-3.224321365356424
31
-1.3801980803251901e-05
0
LINE
5
101
100
AcDbEntity
8
0
100
AcDbLine
10
420.99443817138672
20
-3.224321365356424
30
-1.3801980803251901e-05
11
420.99443817138672
21
20.413628634643572
31
-1.3801980804917235e-05
0
LINE
5
102
100
AcDbEntity
8
0
100
AcDbLine
10
420.99443817138672
20
20.413628634643572
30
-1.3801980804917235e-05
11
423.99443817138672
21
20.413628634643572
31
-1.3801980804917235e-05
0
LINE
5
103
100
AcDbEntity
8
0
100
AcDbLine
10
423.99443817138672
20
20.413628634643572
30
-1.3801980804917235e-05
11
423.99443817138672
21
48.13772863464358
31
-1.3801980807137681e-05
0
LINE
5
104
100
AcDbEntity
8
0
100
AcDbLine
10
423.99443817138672
20
48.13772863464358
30
-1.3801980807137681e-05
11
420.99443817138672
21
48.13772863464358
31
-1.3801980807137681e-05
0
LINE
5
105
100
AcDbEntity
8
0
100
AcDbLine
10
420.99443817138672
20
48.13772863464358
30
-1.3801980807137681e-05
11
420.99443817138672
21
71.775678634643597
31
-1.3801980808803016e-05
0
LINE
5
106
100
AcDbEntity
8
0
100
AcDbLine
10
420.99443817138672
20
71.775678634643597
30
-1.3801980808803016e-05
11
388.30468817138666
21
71.775678634643597
31
-1.3801980811023462e-05
0
LINE
5
107
100
AcDbEntity
8
0
100
AcDbLine
10
388.30468817138666
20
71.775678634643597
30
-1.3801980811023462e-05
11
388.30468817138666
21
68.775678634643583
31
-1.3801980810468351e-05
0
LINE
5
108
100
AcDbEntity
8
0
100
AcDbLine
10
388.30468817138666
20
68.775678634643583
30
-1.3801980810468351e-05
11
360.58058817138669
21
68.775678634643583
31
-1.3801980812133685e-05
0
LINE
5
109
100
AcDbEntity
8
0
100
AcDbLine
10
360.58058817138669
20
68.775678634643583
30
-1.3801980812133685e-05
11
360.58058817138669
21
71.775678634643597
31
-1.3801980812133685e-05
0
LINE
5
110
100
AcDbEntity
8
0
100
AcDbLine
10
360.58058817138669
20
71.775678634643597
30
-1.3801980812133685e-05
11
332.85648817138673
21
71.775678634643597
31
-1.380198081379902e-05
0
LINE
5
111
100
AcDbEntity
8
0
100
AcDbLine
10
332.85648817138673
20
71.775678634643597
30
-1.380198081379902e-05
11
332.85648817138673
21
68.775678634643583
31
-1.380198081379902e-05
0
LINE
5
112
100
AcDbEntity
8
0
100
AcDbLine
10
332.85648817138673
20
68.775678634643583
30
-1.380198081379902e-05
11
305.13238817138671
21
68.775678634643583
31
-1.3801980815464354e-05
0
LINE
5
113
100
AcDbEntity
8
0
100
AcDbLine
10
305.13238817138671
20
68.775678634643583
30
-1.3801980815464354e-05
11
305.13238817138671
21
71.775678634643597
31
-1.3801980815464354e-05
0
LINE
5
114
100
AcDbEntity
8
0
100
AcDbLine
10
305.13238817138671
20
71.775678634643597
30
-1.3801980815464354e-05
11
277.40828817138674
21
71.775678634643597
31
-1.3801980817129689e-05
0
LINE
5
115
100
AcDbEntity
8
0
100
AcDbLine
10
277.40828817138674
20
71.775678634643597
30
-1.3801980817129689e-05
11
277.40828817138674
21
68.775678634643583
31
-1.3801980816574577e-05
0
LINE
5
116
100
AcDbEntity
8
0
100
AcDbLine
10
277.40828817138674
20
68.775678634643583
30
-1.3801980816574577e-05
11
249.68418817138669
21
68.775678634643583
31
-1.3801980818239912e-05
0
LINE
5
117
100
AcDbEntity
8
0
100
AcDbLine
10
249.68418817138669
20
68.775678634643583
30
-1.3801980818239912e-05
11
249.68418817138669
21
71.775678634643597
31
-1.3801980818795023e-05
0
LINE
5
118
100
AcDbEntity
8
0
100
AcDbLine
10
249.68418817138669
20
71.775678634643597
30
-1.3801980818795023e-05
11
216.99443817138672
21
71.775678634643597
31
-1.3801980820460358e-05
0
LINE
5
119
100
AcDbEntity
8
0
100
AcDbLine
10
216.99443817138672
20
71.775678634643597
30
-1.3801980820460358e-05
11
216.99443817138672
21
48.13772863464358
31
-1.3801980818795023e-05
0
LINE
5
120
100
AcDbEntity
8
0
100
AcDbLine
10
216.99443817138672
20
48.13772863464358
30
-1.3801980818795023e-05
11
213.99443817138666
21
48.13772863464358
31
-1.3801980818795023e-05
0
LINE
5
121
100
AcDbEntity
8
0
100
AcDbLine
10
213.99443817138666
20
48.13772863464358
30
-1.3801980818795023e-05
11
213.99443817138666
21
20.413628634643572
31
-1.3801980816574577e-05
0
LINE
5
122
100
AcDbEntity
8
0
100
AcDbLine
10
213.99443817138666
20
20.413628634643572
30
-1.3801980816574577e-05
11
216.99443817138672
21
20.413628634643572
31
-1.3801980816574577e-05
0
LINE
5
123
100
AcDbEntity
8
0
100
AcDbLine
10
216.99443817138672
20
20.413628634643572
30
-1.3801980816574577e-05
11
216.99443817138672
21
-3.224321365356424
31
-1.3801980814354131e-05
0
LINE
5
124
100
AcDbEntity
8
0
100
AcDbLine
10
216.99443817138672
20
-3.224321365356424
30
-1.3801980814354131e-05
11
249.68418817138669
21
-3.224321365356424
31
-1.3801980812688797e-05
0
LINE
5
125
100
AcDbEntity
8
0
100
AcDbLine
10
249.68418817138669
20
-3.224321365356424
30
-1.3801980812688797e-05
11
249.68418817138669
21
-0.22432136535641689
31
-1.3801980813243908e-05
0
LINE
5
126
100
AcDbEntity
8
0
100
AcDbLine
10
249.68418817138669
20
-0.22432136535641689
30
-1.3801980813243908e-05
11
277.40828817138674
21
-0.22432136535641689
31
-1.3801980811578574e-05
0
LINE
5
127
100
AcDbEntity
8
0
100
AcDbLine
10
277.40828817138674
20
-0.22432136535641689
30
-1.3801980811578574e-05
11
277.40828817138674
21
-3.224321365356424
31
-1.3801980811023462e-05
0
LINE
5
128
100
AcDbEntity
8
0
100
AcDbLine
10
277.40828817138674
20
-3.224321365356424
30
-1.3801980811023462e-05
11
305.13238817138671
21
-3.224321365356424
31
-1.3801980809913239e-05
0
LINE
5
129
100
AcDbEntity
8
0
100
AcDbLine
10
305.13238817138671
20
-3.224321365356424
30
-1.3801980809913239e-05
11
305.13238817138671
21
-0.22432136535641689
31
-1.3801980809913239e-05
0
LINE
5
130
100
AcDbEntity
8
0
100
AcDbLine
10
305.13238817138671
20
-0.22432136535641689
30
-1.3801980809913239e-05
11
332.85648817138673
21
-0.22432136535641689
31
-1.3801980808247905e-05
0
LINE
5
131
100
AcDbEntity
8
0
100
AcDbLine
10
332.85648817138673
20
-0.22432136535641689
30
-1.3801980808247905e-05
11
332.85648817138673
21
-3.224321365356424
31
-1.3801980808247905e-05
0
LINE
5
132
100
AcDbEntity
8
0
100
AcDbLine
10
332.85648817138673
20
-3.224321365356424
30
-1.3801980808247905e-05
11
360.58058817138669
21
-3.224321365356424
31
-1.380198080658257e-05
0
LINE
5
133
100
AcDbEntity
8
0
100
AcDbLine
10
360.58058817138669
20
-3.224321365356424
30
-1.380198080658257e-05
11
360.58058817138669
21
-0.22432136535641689
31
-1.380198080658257e-05
0
LINE
5
134
100
AcDbEntity
8
0
100
AcDbLine
10
360.58058817138669
20
-0.22432136535641689
30
-1.380198080658257e-05
11
388.30468817138666
21
-0.22432136535641689
31
-1.3801980805472347e-05
0
LINE
5
135
100
AcDbEntity
8
0
100
AcDbLine
10
388.30468817138666
20
-0.22432136535641689
30
-1.3801980805472347e-05
11
388.30468817138666
21
-3.224321365356424
31
-1.3801980804917235e-05
0
CIRCLE
5
136
100
AcDbEntity
8
0
100
AcDbCircle
10
400.50001045234194
20
61.799997598976155
30
-1.3801985500050407e-05
40
1.3750000000000284
210
4.9737991503207013e-14
220
-1.5715562277402823e-42
230
1
0
CIRCLE
5
137
100
AcDbEntity
8
0
100
AcDbCircle
10
342.500010452342
20
61.799997598975978
30
-1.3801982619021658e-05
40
1.3750000000000284
210
4.9737991503207013e-14
220
-1.5715562277402823e-42
230
1
0
CIRCLE
5
138
100
AcDbEntity
8
0
100
AcDbCircle
10
400.50001045234211
20
12.799997598976223
30
-1.3801984371508702e-05
40
1.3750000000000284
210
4.9737991503207013e-14
220
-1.5439681642238875e-42
230
1
0
CIRCLE
5
139
100
AcDbEntity
8
0
100
AcDbCircle
10
342.50001045234217
20
12.799997598976027
30
-1.3801981490479953e-05
40
1.3750000000000284
210
4.9737991503207013e-14
220
-1.5439681642238875e-42
230
1
0
ENDSEC
0
SECTION
2
OBJECTS
0
DICTIONARY
5
C
100
AcDbDictionary
3
ACAD_GROUP
350
D
3
ACAD_MLINESTYLE
350
17
0
DICTIONARY
5
D
100
AcDbDictionary
0
DICTIONARY
5
1A
330
C
100
AcDbDictionary
0
DICTIONARY
5
17
100
AcDbDictionary
0
ENDSEC
0
EOF
