0
SECTION
2
HEADER
9
$INSUNITS
70
4
9
$ACADVER
1
AC1014
9
$HANDSEED
5
FFFF
0
ENDSEC
0
SECTION
2
TABLES
0
TABLE
2
VPORT
5
8
100
AcDbSymbolTable
0
ENDTAB
0
TABLE
2
LTYPE
5
5
100
AcDbSymbolTable
0
LTYPE
5
14
100
AcDbSymbolTableRecord
100
AcDbLinetypeTableRecord
2
BYBLOCK
70
0
0
LTYPE
5
15
100
AcDbSymbolTableRecord
100
AcDbLinetypeTableRecord
2
BYLAYER
70
0
0
ENDTAB
0
TABLE
2
LAYER
5
2
100
AcDbSymbolTable
70
2
0
LAYER
5
50
100
AcDbSymbolTableRecord
100
AcDbLayerTableRecord
2
0
70
0
6
CONTINUOUS
0
ENDTAB
0
TABLE
2
STYLE
5
3
100
AcDbSymbolTable
70
1
0
STYLE
5
11
100
AcDbSymbolTableRecord
100
AcDbTextStyleTableRecord
2
STANDARD
70
0
0
ENDTAB
0
TABLE
2
VIEW
5
6
100
AcDbSymbolTable
70
0
0
ENDTAB
0
TABLE
2
UCS
5
7
100
AcDbSymbolTable
70
0
0
ENDTAB
0
TABLE
2
APPID
5
9
100
AcDbSymbolTable
70
2
0
APPID
5
12
100
AcDbSymbolTableRecord
100
AcDbRegAppTableRecord
2
ACAD
70
0
0
ENDTAB
0
TABLE
2
DIMSTYLE
5
A
100
AcDbSymbolTable
70
1
0
ENDTAB
0
TABLE
2
BLOCK_RECORD
5
1
100
AcDbSymbolTable
70
1
0
BLOCK_RECORD
5
1F
100
AcDbSymbolTableRecord
100
AcDbBlockTableRecord
2
*MODEL_SPACE
0
BLOCK_RECORD
5
1B
100
AcDbSymbolTableRecord
100
AcDbBlockTableRecord
2
*PAPER_SPACE
0
ENDTAB
0
ENDSEC
0
SECTION
2
BLOCKS
0
BLOCK
5
20
100
AcDbEntity
100
AcDbBlockBegin
2
*MODEL_SPACE
0
ENDBLK
5
21
100
AcDbEntity
100
AcDbBlockEnd
0
BLOCK
5
1C
100
AcDbEntity
100
AcDbBlockBegin
2
*PAPER_SPACE
0
ENDBLK
5
1D
100
AcDbEntity
100
AcDbBlockEnd
0
ENDSEC
0
SECTION
2
ENTITIES
0
LINE
5
100
100
AcDbEntity
8
0
100
AcDbLine
10
-466.99774004136759
20
66.941764907520152
30
-1.2435841673097414e-05
11
-406.99774004136759
21
66.941764907520152
31
-1.2435841676428083e-05
0
LINE
5
101
100
AcDbEntity
8
0
100
AcDbLine
10
-406.99774004136759
20
66.941764907520152
30
-1.2435841676428083e-05
11
-406.99774004136759
21
51.941764907520152
31
-1.2435841675872972e-05
0
LINE
5
102
100
AcDbEntity
8
0
100
AcDbLine
10
-406.99774004136759
20
51.941764907520152
30
-1.2435841675872972e-05
11
-466.99774004136759
21
51.941764907520152
31
-1.2435841672542303e-05
0
LINE
5
103
100
AcDbEntity
8
0
100
AcDbLine
10
-466.99774004136759
20
51.941764907520152
30
-1.2435841672542303e-05
11
-466.99774004136759
21
66.941764907520152
31
-1.2435841673097414e-05
0
LINE
5
104
100
AcDbEntity
8
0
100
AcDbLine
10
-547.99773382758246
20
10.74176390914241
30
-1.2435841667546299e-05
11
-547.99773382758246
21
8.24176390914241
31
-1.2435841665880965e-05
0
LINE
5
105
100
AcDbEntity
8
0
100
AcDbLine
10
-547.99773382758246
20
8.24176390914241
30
-1.2435841665880965e-05
11
-551.29773382758253
21
8.241763909142481
31
-1.2435841663660518e-05
0
LINE
5
106
100
AcDbEntity
8
0
100
AcDbLine
10
-551.29773382758253
20
8.241763909142481
30
-1.2435841663660518e-05
11
-551.29773382758162
21
66.241763909142463
31
-1.2435841668101411e-05
0
LINE
5
107
100
AcDbEntity
8
0
100
AcDbLine
10
-551.29773382758162
20
66.241763909142463
30
-1.2435841668101411e-05
11
-547.99773382758144
21
66.241763909142435
31
-1.2435841670876968e-05
0
LINE
5
108
100
AcDbEntity
8
0
100
AcDbLine
10
-547.99773382758144
20
66.241763909142435
30
-1.2435841670876968e-05
11
-547.99773382758156
21
63.991763909142421
31
-1.2435841668101411e-05
0
LINE
5
109
100
AcDbEntity
8
0
100
AcDbLine
10
-547.99773382758156
20
63.991763909142421
30
-1.2435841668101411e-05
11
-534.6977338275816
21
63.991763909142222
31
-1.2435841668656522e-05
0
LINE
5
110
100
AcDbEntity
8
0
100
AcDbLine
10
-534.6977338275816
20
63.991763909142222
30
-1.2435841668656522e-05
11
-534.69773382758183
21
45.9917639091422
31
-1.2435841666991188e-05
0
LINE
5
111
100
AcDbEntity
8
0
100
AcDbLine
10
-534.69773382758183
20
45.9917639091422
30
-1.2435841666991188e-05
11
-547.99773382758178
21
45.991763909142414
31
-1.2435841666436076e-05
0
LINE
5
112
100
AcDbEntity
8
0
100
AcDbLine
10
-547.99773382758178
20
45.991763909142414
30
-1.2435841666436076e-05
11
-547.9977338275819
21
43.741763909142435
31
-1.2435841666991188e-05
0
LINE
5
113
100
AcDbEntity
8
0
100
AcDbLine
10
-547.9977338275819
20
43.741763909142435
30
-1.2435841666991188e-05
11
-532.9977338275819
21
43.741763909142186
31
-1.2435841668101411e-05
0
LINE
5
114
100
AcDbEntity
8
0
100
AcDbLine
10
-532.9977338275819
20
43.741763909142186
30
-1.2435841668101411e-05
11
-532.99773382758212
21
28.741763909142186
31
-1.2435841668101411e-05
0
LINE
5
115
100
AcDbEntity
8
0
100
AcDbLine
10
-532.99773382758212
20
28.741763909142186
30
-1.2435841668101411e-05
11
-547.99773382758212
21
28.741763909142435
31
-1.2435841666991188e-05
0
LINE
5
116
100
AcDbEntity
8
0
100
AcDbLine
10
-547.99773382758212
20
28.741763909142435
30
-1.2435841666991188e-05
11
-547.99773382758212
21
25.74176390914241
31
-1.2435841667546299e-05
0
LINE
5
117
100
AcDbEntity
8
0
100
AcDbLine
10
-547.99773382758212
20
25.74176390914241
30
-1.2435841667546299e-05
11
-532.99773382758212
21
25.741763909142197
31
-1.2435841668101411e-05
0
LINE
5
118
100
AcDbEntity
8
0
100
AcDbLine
10
-532.99773382758212
20
25.741763909142197
30
-1.2435841668101411e-05
11
-532.99773382758246
21
10.741763909142197
31
-1.2435841668101411e-05
0
LINE
5
119
100
AcDbEntity
8
0
100
AcDbLine
10
-532.99773382758246
20
10.741763909142197
30
-1.2435841668101411e-05
11
-547.99773382758246
21
10.74176390914241
31
-1.2435841667546299e-05
0
LINE
5
120
100
AcDbEntity
8
0
100
AcDbLine
10
-554.03239440917969
20
20.413628634643501
30
-1.2435841666436076e-05
11
-557.03239440917969
21
20.413628634643501
31
-1.2435841666436076e-05
0
LINE
5
121
100
AcDbEntity
8
0
100
AcDbLine
10
-557.03239440917969
20
20.413628634643501
30
-1.2435841666436076e-05
11
-557.03239440917969
21
-3.2243213653564951
31
-1.2435841665325853e-05
0
LINE
5
122
100
AcDbEntity
8
0
100
AcDbLine
10
-557.03239440917969
20
-3.2243213653564951
30
-1.2435841665325853e-05
11
-513.61854440917966
21
-3.2243213653564773
31
-1.2435841667546299e-05
0
LINE
5
123
100
AcDbEntity
8
0
100
AcDbLine
10
-513.61854440917966
20
-3.2243213653564773
30
-1.2435841667546299e-05
11
-513.61854440917966
21
-0.22432136535647018
31
-1.2435841667546299e-05
0
LINE
5
124
100
AcDbEntity
8
0
100
AcDbLine
10
-513.61854440917966
20
-0.22432136535647018
30
-1.2435841667546299e-05
11
-485.89444440917975
21
-0.22432136535647018
31
-1.2435841669211634e-05
0
LINE
5
125
100
AcDbEntity
8
0
100
AcDbLine
10
-485.89444440917975
20
-0.22432136535647018
30
-1.2435841669211634e-05
11
-485.89444440917975
21
-3.2243213653564773
31
-1.2435841669211634e-05
0
LINE
5
126
100
AcDbEntity
8
0
100
AcDbLine
10
-485.89444440917975
20
-3.2243213653564773
30
-1.2435841669211634e-05
11
-458.17034440917962
21
-3.2243213653564773
31
-1.2435841670876968e-05
0
LINE
5
127
100
AcDbEntity
8
0
100
AcDbLine
10
-458.17034440917962
20
-3.2243213653564773
30
-1.2435841670876968e-05
11
-458.17034440917962
21
-0.22432136535647018
31
-1.2435841670876968e-05
0
LINE
5
128
100
AcDbEntity
8
0
100
AcDbLine
10
-458.17034440917962
20
-0.22432136535647018
30
-1.2435841670876968e-05
11
-430.44624440917971
21
-0.22432136535647018
31
-1.2435841672542303e-05
0
LINE
5
129
100
AcDbEntity
8
0
100
AcDbLine
10
-430.44624440917971
20
-0.22432136535647018
30
-1.2435841672542303e-05
11
-430.44624440917971
21
-3.2243213653564773
31
-1.2435841671987191e-05
0
LINE
5
130
100
AcDbEntity
8
0
100
AcDbLine
10
-430.44624440917971
20
-3.2243213653564773
30
-1.2435841671987191e-05
11
-387.03239440917969
21
-3.2243213653564773
31
-1.2435841674762749e-05
0
LINE
5
131
100
AcDbEntity
8
0
100
AcDbLine
10
-387.03239440917969
20
-3.2243213653564773
30
-1.2435841674762749e-05
11
-387.03239440917969
21
20.413628634643519
31
-1.2435841675872972e-05
0
LINE
5
132
100
AcDbEntity
8
0
100
AcDbLine
10
-387.03239440917969
20
20.413628634643519
30
-1.2435841675872972e-05
11
-390.03239440917974
21
20.413628634643519
31
-1.243584167531786e-05
0
LINE
5
133
100
AcDbEntity
8
0
100
AcDbLine
10
-390.03239440917974
20
20.413628634643519
30
-1.243584167531786e-05
11
-390.03239440917974
21
48.137728634643523
31
-1.2435841676428083e-05
0
LINE
5
134
100
AcDbEntity
8
0
100
AcDbLine
10
-390.03239440917974
20
48.137728634643523
30
-1.2435841676428083e-05
11
-387.03239440917969
21
48.137728634643523
31
-1.2435841676983195e-05
0
LINE
5
135
100
AcDbEntity
8
0
100
AcDbLine
10
-387.03239440917969
20
48.137728634643523
30
-1.2435841676983195e-05
11
-387.03239440917969
21
71.77567863464354
31
-1.2435841678093418e-05
0
LINE
5
136
100
AcDbEntity
8
0
100
AcDbLine
10
-387.03239440917969
20
71.77567863464354
30
-1.2435841678093418e-05
11
-430.44624440917971
21
71.77567863464354
31
-1.243584167531786e-05
0
LINE
5
137
100
AcDbEntity
8
0
100
AcDbLine
10
-430.44624440917971
20
71.77567863464354
30
-1.243584167531786e-05
11
-430.44624440917971
21
68.775678634643526
31
-1.243584167531786e-05
0
LINE
5
138
100
AcDbEntity
8
0
100
AcDbLine
10
-430.44624440917971
20
68.775678634643526
30
-1.243584167531786e-05
11
-458.17034440917962
21
68.775678634643526
31
-1.2435841673652526e-05
0
LINE
5
139
100
AcDbEntity
8
0
100
AcDbLine
10
-458.17034440917962
20
68.775678634643526
30
-1.2435841673652526e-05
11
-458.17034440917962
21
71.77567863464354
31
-1.2435841674207637e-05
0
LINE
5
140
100
AcDbEntity
8
0
100
AcDbLine
10
-458.17034440917962
20
71.77567863464354
30
-1.2435841674207637e-05
11
-485.89444440917975
21
71.77567863464354
31
-1.2435841672542303e-05
0
LINE
5
141
100
AcDbEntity
8
0
100
AcDbLine
10
-485.89444440917975
20
71.77567863464354
30
-1.2435841672542303e-05
11
-485.89444440917975
21
68.775678634643526
31
-1.2435841671987191e-05
0
LINE
5
142
100
AcDbEntity
8
0
100
AcDbLine
10
-485.89444440917975
20
68.775678634643526
30
-1.2435841671987191e-05
11
-513.61854440917966
21
68.775678634643526
31
-1.2435841670876968e-05
0
LINE
5
143
100
AcDbEntity
8
0
100
AcDbLine
10
-513.61854440917966
20
68.775678634643526
30
-1.2435841670876968e-05
11
-513.61854440917966
21
71.77567863464354
31
-1.2435841670876968e-05
0
LINE
5
144
100
AcDbEntity
8
0
100
AcDbLine
10
-513.61854440917966
20
71.77567863464354
30
-1.2435841670876968e-05
11
-557.03239440917969
21
71.775678634643526
31
-1.2435841668656522e-05
0
LINE
5
145
100
AcDbEntity
8
0
100
AcDbLine
10
-557.03239440917969
20
71.775678634643526
30
-1.2435841668656522e-05
11
-557.03239440917969
21
48.137728634643508
31
-1.2435841667546299e-05
0
LINE
5
146
100
AcDbEntity
8
0
100
AcDbLine
10
-557.03239440917969
20
48.137728634643508
30
-1.2435841667546299e-05
11
-554.03239440917969
21
48.137728634643508
31
-1.2435841667546299e-05
0
LINE
5
147
100
AcDbEntity
8
0
100
AcDbLine
10
-554.03239440917969
20
48.137728634643508
30
-1.2435841667546299e-05
11
-554.03239440917969
21
20.413628634643501
31
-1.2435841666436076e-05
0
ENDSEC
0
SECTION
2
OBJECTS
0
DICTIONARY
5
C
100
AcDbDictionary
3
ACAD_GROUP
350
D
3
ACAD_MLINESTYLE
350
17
0
DICTIONARY
5
D
100
AcDbDictionary
0
DICTIONARY
5
1A
330
C
100
AcDbDictionary
0
DICTIONARY
5
17
100
AcDbDictionary
0
ENDSEC
0
EOF
